:SAMPLES-PER-SECOND 30
:FULLY-SPECIFIED
:DEGREES
286
root  -11.4121 40.5624 8.27463 -93.1823 -87.9669 93.5081
RightUpLeg  0.416999 -15.3379 -16.5892
RightLeg  7.62066 -19.0109 2.3773
RightFoot  -0.529936 -0.847716 8.90275
RightToes  -2.9104e-010 0 -3.6325e-017
Spine  12.25 3.9031 12.4074
Spine1  20.5797 11.1873 -14.506
HEad  -12.4969 -13.6477 8.16274
LeftShoulder1  8.89982 -14.2558 -43.6056
LeftArm  -11.0778 13.295 -26.5607
LeftForeArm  32.785 -21.1405 -3.20282
LeftHand  -0.244104 0.0205437 5.32207
RightShoulder  3.81496 9.06287 24.2033
RightArm  -13.4719 64.1676 21.4399
RightForeArm  -5.60594 21.9008 5.58616
RightHand  -0.758234 3.0161 -10.8266
LeftUpLeg  -10.9899 2.83412 -1.0317
LeftLeg  7.95505 -2.66413 -3.03771
LeftFoot  2.8168 -0.123733 0.859114
LeftToes  -1.62803e-010 -2.57217e-011 -2.5681e-011
287
root  -11.4619 40.5616 8.32726 -106.295 -87.7077 106.392
RightUpLeg  0.507846 -15.3852 -16.8177
RightLeg  7.70203 -18.2874 2.20533
RightFoot  -0.646471 -0.850029 9.01634
RightToes  -2.9104e-010 0 -3.6325e-017
Spine  12.1856 3.63815 11.6095
Spine1  20.3949 10.6052 -14.0461
HEad  -13.6768 -13.4148 7.62744
LeftShoulder1  8.87607 -14.158 -43.7371
LeftArm  -11.5589 12.6567 -26.5411
LeftForeArm  33.1636 -22.8218 -3.24769
LeftHand  -0.244104 0.0205437 5.32207
RightShoulder  4.28672 9.77168 26.2213
RightArm  -5.99943 59.8403 25.8859
RightForeArm  -1.29501 28.8565 6.25289
RightHand  -0.673794 1.88441 -10.9252
LeftUpLeg  -10.6344 2.79562 -1.21884
LeftLeg  7.98763 -2.10606 -2.99531
LeftFoot  2.704 -0.152142 1.10234
LeftToes  -1.62803e-010 -2.57217e-011 -2.5681e-011
288
root  -11.5127 40.5551 8.36052 -115.919 -87.4454 115.837
RightUpLeg  0.412076 -15.48 -16.8737
RightLeg  8.11589 -17.6295 1.83225
RightFoot  -0.970609 -0.828266 9.03573
RightToes  -2.9104e-010 0 -3.6325e-017
Spine  11.9361 3.38608 10.8328
Spine1  20.3779 9.9852 -13.4279
HEad  -15.0769 -13.2604 7.1758
LeftShoulder1  8.8357 -14.0881 -43.7098
LeftArm  -12.454 11.9975 -26.6009
LeftForeArm  33.9299 -24.8635 -3.53342
LeftHand  -0.244104 0.0205437 5.32207
RightShoulder  4.79507 10.4474 28.3689
RightArm  -0.386223 54.9473 29.1428
RightForeArm  3.42445 34.6335 7.56783
RightHand  -0.727031 1.3872 -12.575
LeftUpLeg  -10.422 2.98992 -1.33408
LeftLeg  8.17727 -1.82762 -2.99461
LeftFoot  2.60824 -0.196361 1.47596
LeftToes  -1.62803e-010 -2.57217e-011 -2.5681e-011
289
root  -11.5572 40.5462 8.3692 -124.327 -87.1887 124.081
RightUpLeg  0.138532 -15.6153 -16.6978
RightLeg  8.83682 -16.8404 1.24414
RightFoot  -1.65295 -0.760798 8.82439
RightToes  -2.9104e-010 0 -3.6325e-017
Spine  11.5513 3.1311 10.1073
Spine1  20.5711 9.351 -12.7177
HEad  -16.6338 -13.1234 6.65277
LeftShoulder1  8.76806 -13.9972 -43.5944
LeftArm  -13.3816 11.2755 -26.6505
LeftForeArm  34.9645 -27.2387 -3.99256
LeftHand  -0.244104 0.0205437 5.32207
RightShoulder  5.29645 11.0408 30.4561
RightArm  5.07112 49.845 31.6163
RightForeArm  6.6988 38.5745 8.52211
RightHand  -0.741556 1.03458 -13.4989
LeftUpLeg  -10.3226 3.29961 -1.3738
LeftLeg  8.51473 -1.63447 -2.95892
LeftFoot  2.55608 -0.245837 1.89009
LeftToes  -1.62803e-010 -2.57217e-011 -2.5681e-011
290
root  -11.5875 40.5384 8.35529 -132.642 -86.8658 132.149
RightUpLeg  -0.202071 -15.6013 -16.3075
RightLeg  9.65989 -15.3342 0.606791
RightFoot  -2.80197 -0.649465 8.42512
RightToes  -2.9104e-010 0 -3.6325e-017
Spine  11.3133 2.87872 9.49901
Spine1  20.7268 8.73512 -11.9921
HEad  -18.2003 -13.0656 6.01614
LeftShoulder1  8.7154 -13.8824 -43.6204
LeftArm  -14.1369 10.5013 -26.4668
LeftForeArm  36.2597 -29.815 -4.49346
LeftHand  -0.244104 0.0205437 5.32207
RightShoulder  5.72151 11.5026 32.1816
RightArm  9.9901 44.6107 33.8479
RightForeArm  8.6884 40.0334 8.85869
RightHand  -0.669831 0.513117 -13.2351
LeftUpLeg  -10.1823 3.67642 -1.34718
LeftLeg  8.91217 -1.45753 -2.88567
LeftFoot  2.51164 -0.29398 2.29464
LeftToes  -1.62803e-010 -2.57217e-011 -2.5681e-011
291
root  -11.5992 40.5368 8.318 -141.049 -86.4274 140.173
RightUpLeg  -0.509461 -15.1511 -15.7074
RightLeg  10.356 -12.664 0.140058
RightFoot  -4.25861 -0.528676 8.06196
RightToes  -2.9104e-010 0 -3.6325e-017
Spine  11.3817 2.63444 9.07571
Spine1  20.6754 8.18745 -11.3779
HEad  -19.6092 -13.0746 5.46192
LeftShoulder1  8.69494 -13.8043 -43.7194
LeftArm  -14.91 9.80995 -26.1452
LeftForeArm  37.6887 -32.453 -5.02857
LeftHand  -0.244104 0.0205437 5.32207
RightShoulder  6.04758 11.8193 33.5174
RightArm  14.1746 39.3295 36.1348
RightForeArm  9.07996 38.711 8.42356
RightHand  -0.55556 -0.264574 -12.6058
LeftUpLeg  -9.85981 4.09467 -1.2047
LeftLeg  9.2261 -1.26004 -2.81311
LeftFoot  2.48091 -0.325697 2.56273
LeftToes  -1.62803e-010 -2.57217e-011 -2.5681e-011
292
root  -11.5851 40.5443 8.24571 -148.864 -85.8999 147.485
RightUpLeg  -0.778121 -14.1371 -14.8652
RightLeg  10.9058 -9.1226 -0.139732
RightFoot  -5.66576 -0.4267 7.81834
RightToes  -2.9104e-010 0 -3.6325e-017
Spine  11.6802 2.36256 8.77473
Spine1  20.5102 7.67681 -10.9027
HEad  -20.8229 -12.9803 5.10873
LeftShoulder1  8.67758 -13.7984 -43.6429
LeftArm  -15.7148 9.31275 -25.9723
LeftForeArm  38.7119 -35.0358 -5.60471
LeftHand  -0.244104 0.0205437 5.32207
RightShoulder  6.31946 12.0528 34.6594
RightArm  18.0151 34.504 38.3745
RightForeArm  7.75895 34.3682 7.20505
RightHand  -0.496164 -0.690958 -12.2428
LeftUpLeg  -9.34609 4.4792 -0.884448
LeftLeg  9.37409 -0.948826 -2.76173
LeftFoot  2.51123 -0.320109 2.50984
LeftToes  -1.62803e-010 -2.57217e-011 -2.5681e-011
293
root  -11.5383 40.5534 8.12631 -154.907 -85.3519 152.995
RightUpLeg  -1.11361 -12.6571 -13.8308
RightLeg  11.5111 -5.68945 -0.3688
RightFoot  -6.76214 -0.345186 7.46708
RightToes  -2.9104e-010 0 -3.6325e-017
Spine  12.0194 2.04004 8.39419
Spine1  20.3915 7.08527 -10.3661
HEad  -21.8903 -12.6767 4.85005
LeftShoulder1  8.64803 -13.8159 -43.4393
LeftArm  -16.4036 8.94353 -25.9434
LeftForeArm  39.1647 -37.4302 -6.2007
LeftHand  -0.244104 0.0205437 5.32207
RightShoulder  6.59817 12.3083 35.7446
RightArm  21.5045 30.7046 40.3578
RightForeArm  6.29531 26.9016 5.72644
RightHand  -0.482928 -0.593097 -11.6739
LeftUpLeg  -8.79859 4.81022 -0.432106
LeftLeg  9.43921 -0.570625 -2.74998
LeftFoot  2.57888 -0.283371 2.19316
LeftToes  -1.62803e-010 -2.57217e-011 -2.5681e-011
294
root  -11.4616 40.5507 7.96128 -158.427 -84.8249 156.081
RightUpLeg  -1.63937 -10.9693 -12.8134
RightLeg  12.3617 -3.29913 -0.600956
RightFoot  -7.48114 -0.280914 6.81689
RightToes  -2.9104e-010 0 -3.6325e-017
Spine  12.2519 1.72202 7.85075
Spine1  20.3054 6.39658 -9.61947
HEad  -22.784 -12.327 4.62688
LeftShoulder1  8.63133 -13.8012 -43.3898
LeftArm  -16.8881 8.54452 -25.8197
LeftForeArm  39.5609 -39.5046 -6.74911
LeftHand  -0.244104 0.0205437 5.32207
RightShoulder  6.88869 12.5995 36.7671
RightArm  17.0671 27.8042 41.5658
RightForeArm  12.0683 16.4485 6.26906
RightHand  -0.437827 -0.718631 -10.8639
LeftUpLeg  -8.42325 5.13417 0.00550254
LeftLeg  9.55956 -0.308037 -2.78378
LeftFoot  2.64097 -0.248294 1.89429
LeftToes  -1.62803e-010 -2.57217e-011 -2.5681e-011
295
root  -11.3613 40.5325 7.76003 -159.581 -84.3244 156.953
RightUpLeg  -2.33327 -9.42131 -12.0511
RightLeg  13.4156 -2.22653 -0.804003
RightFoot  -7.84145 -0.239346 6.08653
RightToes  -2.9104e-010 0 -3.6325e-017
Spine  12.4011 1.47735 7.31532
Spine1  20.0809 5.7696 -8.87175
HEad  -23.4757 -12.216 4.59303
LeftShoulder1  8.64345 -13.7731 -43.5288
LeftArm  -17.1554 8.07618 -25.5858
LeftForeArm  40.2899 -41.2032 -7.19981
LeftHand  -0.244104 0.0205437 5.32207
RightShoulder  7.11939 12.782 37.675
RightArm  -1.98006 24.7178 41.4544
RightForeArm  27.3962 5.00405 7.89183
RightHand  -0.418156 -1.18191 -11.4869
LeftUpLeg  -8.26102 5.45877 0.323987
LeftLeg  9.68249 -0.213417 -2.82091
LeftFoot  2.77597 -0.222696 1.66291
LeftToes  -1.62803e-010 -2.57217e-011 -2.5681e-011
296
root  -11.2319 40.4992 7.52717 -159.557 -83.9242 156.722
RightUpLeg  -3.04163 -8.34418 -11.5727
RightLeg  14.5477 -2.09843 -0.956183
RightFoot  -7.976 -0.220564 5.65798
RightToes  -2.9104e-010 0 -3.6325e-017
Spine  12.6369 1.27886 7.03331
Spine1  19.6255 5.30767 -8.38885
HEad  -24.1688 -12.4186 4.87924
LeftShoulder1  8.65039 -13.7605 -43.5994
LeftArm  -17.234 7.63533 -25.537
LeftForeArm  40.8747 -42.5311 -7.56844
LeftHand  -0.244104 0.0205437 5.32207
RightShoulder  7.20802 12.6989 38.4179
RightArm  -10.8263 20.0834 41.2715
RightForeArm  25.3178 -0.938458 4.56923
RightHand  -0.552806 -1.05453 -14.5678
LeftUpLeg  -8.25758 5.81222 0.590548
LeftLeg  9.81965 -0.278771 -2.814
LeftFoot  2.97223 -0.176773 1.26469
LeftToes  -1.62803e-010 -2.57217e-011 -2.5681e-011
297
root  -11.0588 40.4568 7.2579 -159.174 -83.774 156.085
RightUpLeg  -3.60377 -8.00162 -11.2295
RightLeg  15.6343 -2.24403 -1.0212
RightFoot  -8.03792 -0.21431 5.53119
RightToes  -2.9104e-010 0 -3.6325e-017
Spine  13.0724 1.03183 6.98184
Spine1  19.1162 4.8844 -8.03953
HEad  -25.2122 -12.7669 5.3777
LeftShoulder1  8.60671 -13.7232 -43.4659
LeftArm  -17.2728 7.2771 -25.9395
LeftForeArm  40.4491 -43.3681 -7.85861
LeftHand  -0.244104 0.0205437 5.32207
RightShoulder  7.15071 12.3756 38.9409
RightArm  -17.4158 14.2466 40.5672
RightForeArm  17.0629 -2.18754 2.77377
RightHand  -0.863757 0.219549 -17.9411
LeftUpLeg  -8.3424 6.26005 0.904176
LeftLeg  10.049 -0.669494 -2.75545
LeftFoot  3.14631 -0.105363 0.67881
LeftToes  -1.62803e-010 -2.57217e-011 -2.5681e-011
298
root  -10.8374 40.4138 6.9476 -158.637 -83.9385 155.215
RightUpLeg  -3.99739 -8.48833 -10.8563
RightLeg  16.6006 -2.09858 -0.942537
RightFoot  -8.03646 -0.208957 5.34403
RightToes  -2.9104e-010 0 -3.6325e-017
Spine  13.6341 0.698728 6.98604
Spine1  18.8186 4.32305 -7.44609
HEad  -26.6445 -13.0483 5.7725
LeftShoulder1  8.52174 -13.6184 -43.2905
LeftArm  -17.4327 6.99969 -26.7801
LeftForeArm  38.8694 -43.444 -7.98346
LeftHand  -0.244104 0.0205437 5.32207
RightShoulder  7.02401 12.0037 39.193
RightArm  -19.7618 8.09799 39.4656
RightForeArm  7.97174 -0.0995833 2.96488
RightHand  -1.00392 1.06176 -18.0716
LeftUpLeg  -8.48689 6.7056 1.28883
LeftLeg  10.3664 -1.44128 -2.62949
LeftFoot  3.38196 -0.0384769 0.138999
LeftToes  -1.62803e-010 -2.57217e-011 -2.5681e-011
299
root  -10.575 40.3717 6.5987 -158.569 -84.2951 154.802
RightUpLeg  -4.35931 -9.5416 -10.3192
RightLeg  17.4667 -1.57608 -0.728812
RightFoot  -7.88961 -0.19996 4.85499
RightToes  -2.9104e-010 0 -3.6325e-017
Spine  14.2197 0.319682 7.06802
Spine1  18.6882 3.62739 -6.52582
HEad  -28.0414 -13.1397 5.78254
LeftShoulder1  8.45026 -13.4819 -43.2714
LeftArm  -17.5955 6.96394 -27.8071
LeftForeArm  37.0553 -42.7183 -7.8672
LeftHand  -0.244104 0.0205437 5.32207
RightShoulder  6.90358 11.7503 39.1589
RightArm  -18.8967 2.43474 38.0131
RightForeArm  3.55187 3.36543 4.10816
RightHand  -0.753233 0.431637 -15.0295
LeftUpLeg  -8.71217 6.91197 1.79487
LeftLeg  10.6566 -2.20816 -2.40478
LeftFoot  3.85296 0.0280306 -0.384173
LeftToes  -1.62803e-010 -2.57217e-011 -2.5681e-011
300
root  -10.2709 40.3314 6.21416 -159.603 -84.652 155.582
RightUpLeg  -4.85688 -10.7264 -9.55371
RightLeg  18.2378 -0.984117 -0.481361
RightFoot  -7.5869 -0.185921 4.098
RightToes  -2.9104e-010 0 -3.6325e-017
Spine  14.8411 -0.078488 7.32487
Spine1  18.4025 2.92126 -5.58654
HEad  -29.012 -12.9791 5.42589
LeftShoulder1  8.41521 -13.3637 -43.4009
LeftArm  -17.4088 7.45697 -28.7179
LeftForeArm  36.2119 -41.5879 -7.56718
LeftHand  -0.244104 0.0205437 5.32207
RightShoulder  6.80826 11.628 38.9073
RightArm  -16.1318 -2.21892 36.4564
RightForeArm  3.99274 6.55168 5.29346
RightHand  -0.604104 0.160221 -12.7344
LeftUpLeg  -9.00124 6.89522 2.47796
LeftLeg  10.6835 -2.64709 -2.13332
LeftFoot  4.54523 0.12574 -1.09841
LeftToes  -1.62803e-010 -2.57217e-011 -2.5681e-011
